<svg xmlns="http://www.w3.org/2000/svg" width="47" height="44" viewBox="0 0 47 44">
  <defs>
    <style>
      .cls-1 {
        fill: #ffc222;
        fill-rule: evenodd;
      }
    </style>
  </defs>
  <path class="cls-1" d="M1369.99,896.321h-11.42V893.93a2.4,2.4,0,0,0,1.48-1.487,2.464,2.464,0,0,0-1.43-3.128,25.728,25.728,0,0,0-16.24,0,2.464,2.464,0,0,0-1.43,3.129,2.382,2.382,0,0,0,1.48,1.486v2.391h-11.42a4.066,4.066,0,0,0-4.01,4.109v27.461a4.066,4.066,0,0,0,4.01,4.109h38.98a4.066,4.066,0,0,0,4.01-4.109V900.43A4.066,4.066,0,0,0,1369.99,896.321Zm-27.09-5.538a24.226,24.226,0,0,1,15.2,0,0.89,0.89,0,0,1,.52,1.131,0.863,0.863,0,0,1-.81.586,0.806,0.806,0,0,1-.29-0.053,22.579,22.579,0,0,0-14.04,0,0.856,0.856,0,0,1-1.1-.532A0.891,0.891,0,0,1,1342.9,890.783Zm1.05,3.148,0.05-.016a21.083,21.083,0,0,1,13,0l0.05,0.015v2.391h-13.1v-2.39Zm-15.43,6.5a2.524,2.524,0,0,1,2.49-2.548h38.98a2.524,2.524,0,0,1,2.49,2.548v7.489a9.108,9.108,0,0,1-8.99,9.206h-9.79v-0.884a2.419,2.419,0,0,0-2.39-2.445h-1.62a2.419,2.419,0,0,0-2.39,2.445v0.884h-9.79a9.108,9.108,0,0,1-8.99-9.206V900.43Zm23.65,17.475a0.869,0.869,0,0,1-.86.884h-1.62a0.878,0.878,0,0,1-.87-0.884v-1.664a0.878,0.878,0,0,1,.87-0.884h1.62a0.869,0.869,0,0,1,.86.884v1.664Zm-3.35,2.279a2.362,2.362,0,0,0,.87.165h1.62a2.272,2.272,0,0,0,.86-0.165v1.05a0.87,0.87,0,0,1-.86.884h-1.62a0.878,0.878,0,0,1-.87-0.884v-1.05Zm23.66,7.707a2.524,2.524,0,0,1-2.49,2.548h-38.98a2.524,2.524,0,0,1-2.49-2.548V913.5a10.469,10.469,0,0,0,8.99,5.188h9.79v2.549a2.419,2.419,0,0,0,2.39,2.444h1.62a2.419,2.419,0,0,0,2.39-2.444v-2.549h9.79a10.469,10.469,0,0,0,8.99-5.188v14.394Z" transform="translate(-1327 -888)"/>
</svg>
