<svg xmlns="http://www.w3.org/2000/svg" width="63" height="54" viewBox="0 0 63 54">
  <defs>
    <style>
      .cls-1 {
        fill: #ffc222;
        fill-rule: evenodd;
      }
    </style>
  </defs>
  <path class="cls-1" d="M596.8,919.591h-1.156v-1.159a3.206,3.206,0,0,0-3.2-3.205H581.563a3.2,3.2,0,0,0-3.2,3.205v1.159h-1.157a3.2,3.2,0,0,0-3.2,3.2v2.182a1.022,1.022,0,0,0,1.02,1.023h23.948A1.022,1.022,0,0,0,600,924.977V922.8A3.2,3.2,0,0,0,596.8,919.591Zm-16.4-1.159a1.159,1.159,0,0,1,1.157-1.159h10.885a1.159,1.159,0,0,1,1.157,1.159v1.159h-13.2v-1.159Zm17.553,5.522H576.052V922.8a1.159,1.159,0,0,1,1.156-1.159H596.8a1.159,1.159,0,0,1,1.157,1.159v1.159Zm-21.907-26.381-0.048.048a3.213,3.213,0,0,0,0,4.532,3.194,3.194,0,0,0,4.522,0l6.158-6.171a3.2,3.2,0,1,0-4.522-4.532l-0.049.049-2.367-2.372a2.119,2.119,0,0,0-.534-2.079l-6.609-6.622a2.107,2.107,0,0,0-2.074-.536l-2.367-2.372,0.048-.048a3.2,3.2,0,1,0-4.522-4.532l-6.158,6.171a3.2,3.2,0,1,0,4.523,4.531l0.048-.048,2.366,2.372a2.145,2.145,0,0,0-.082.584,2.1,2.1,0,0,0,.617,1.5l0.274,0.274-2.116,2.12a3.2,3.2,0,0,0-.925,2.47l-24.3,24.35a3.2,3.2,0,1,0,4.522,4.532l24.3-24.35c0.068,0,.135.009,0.2,0.009a3.182,3.182,0,0,0,2.261-.937l2.116-2.12,0.274,0.274a2.1,2.1,0,0,0,2.074.537Zm8.371-5.015a1.159,1.159,0,0,1,.817,1.978l-6.157,6.17a1.158,1.158,0,0,1-1.636-1.638l6.158-6.171A1.15,1.15,0,0,1,584.423,892.558Zm-6.928,3.569-2.18-2.185,3.175-3.181,2.18,2.184Zm-18.521-13.933a1.162,1.162,0,0,1,0-1.639l6.157-6.171a1.156,1.156,0,0,1,1.636,0,1.162,1.162,0,0,1,0,1.639l-6.158,6.171A1.155,1.155,0,0,1,558.974,882.194Zm7.745-3.23,2.18,2.185-3.175,3.182-2.18-2.185Zm-25.7,41.378a1.158,1.158,0,0,1-1.635-1.639l23.734-23.785,0.046,0.051,1.539,1.542c0.016,0.017.034,0.031,0.051,0.046Zm26.763-25.277a1.155,1.155,0,0,1-1.635,0l-1.54-1.542a1.163,1.163,0,0,1,0-1.64l2.116-2.12,3.175,3.182Zm-1.333-8.469a0.061,0.061,0,0,1-.019-0.048,0.065,0.065,0,0,1,.019-0.048l4.619-4.628a0.068,0.068,0,0,1,.1,0l6.609,6.622a0.07,0.07,0,0,1,0,.1l-4.619,4.628a0.068,0.068,0,0,1-.1,0Z" transform="translate(-537 -872)"/>
</svg>
